<?xml version="1.0" standalone="no"?>
<!DOCTYPE svg PUBLIC "-//W3C//DTD SVG 20010904//EN"
 "http://www.w3.org/TR/2001/REC-SVG-20010904/DTD/svg10.dtd">
<svg version="1.0" xmlns="http://www.w3.org/2000/svg"
 width="1024.000000pt" height="1024.000000pt" viewBox="0 0 1024.000000 1024.000000"
 preserveAspectRatio="xMidYMid meet">
<metadata>
Created by potrace 1.11, written by Peter Selinger 2001-2013
</metadata>
<g transform="translate(0.000000,1024.000000) scale(0.100000,-0.100000)"
fill="#000000" stroke="none">
<path d="M0 10228 c0 -7 138 -151 307 -320 l308 -308 -308 0 c-300 0 -307 0
-307 -20 0 -20 7 -20 320 -20 l320 0 0 -1240 0 -1240 -320 0 c-313 0 -320 0
-320 -20 0 -20 7 -20 320 -20 l320 0 0 -950 0 -950 -320 0 c-313 0 -320 0
-320 -20 0 -20 7 -20 320 -20 l320 0 0 -950 0 -950 -320 0 c-313 0 -320 0
-320 -20 0 -20 7 -20 320 -20 l320 0 0 -1240 0 -1240 -320 0 c-313 0 -320 0
-320 -20 0 -20 7 -20 302 -20 l303 0 -303 -303 c-166 -166 -302 -310 -302
-320 0 -9 8 -17 17 -17 10 0 154 136 320 302 l303 303 0 -303 c0 -295 0 -302
20 -302 20 0 20 7 20 320 l0 320 1240 0 1240 0 0 -320 c0 -313 0 -320 20 -320
20 0 20 7 20 320 l0 320 950 0 950 0 0 -320 c0 -313 0 -320 20 -320 20 0 20 7
20 320 l0 320 950 0 950 0 0 -320 c0 -313 0 -320 20 -320 20 0 20 7 20 320 l0
320 1240 0 1240 0 0 -320 c0 -313 0 -320 20 -320 20 0 20 7 20 302 l0 303 303
-303 c166 -166 310 -302 320 -302 9 0 17 8 17 17 0 10 -136 154 -302 320
l-303 303 303 0 c295 0 302 0 302 20 0 20 -7 20 -320 20 l-320 0 0 1240 0
1240 320 0 c313 0 320 0 320 20 0 20 -7 20 -320 20 l-320 0 0 950 0 950 320 0
c313 0 320 0 320 20 0 20 -7 20 -320 20 l-320 0 0 950 0 950 320 0 c313 0 320
0 320 20 0 20 -7 20 -320 20 l-320 0 0 1240 0 1240 320 0 c313 0 320 0 320 20
0 20 -7 20 -307 20 l-308 0 308 308 c169 169 307 313 307 320 0 6 -6 12 -12
12 -7 0 -151 -138 -320 -307 l-308 -308 0 308 c0 300 0 307 -20 307 -20 0 -20
-7 -20 -320 l0 -320 -1240 0 -1240 0 0 320 c0 313 0 320 -20 320 -20 0 -20 -7
-20 -320 l0 -320 -950 0 -950 0 0 320 c0 313 0 320 -20 320 -20 0 -20 -7 -20
-320 l0 -320 -950 0 -950 0 0 320 c0 313 0 320 -20 320 -20 0 -20 -7 -20 -320
l0 -320 -1240 0 -1240 0 0 320 c0 313 0 320 -20 320 -20 0 -20 -7 -20 -307 l0
-308 -308 308 c-169 169 -313 307 -320 307 -6 0 -12 -6 -12 -12z m3160 -875
l0 -208 -123 -62 c-313 -158 -639 -388 -943 -663 l-131 -118 -629 629 -629
629 1228 0 1227 0 0 -207z m1210 182 c-361 -63 -707 -165 -1020 -302 -69 -30
-131 -57 -137 -60 -10 -4 -13 38 -13 191 l0 196 653 -1 652 -1 -135 -23z m730
-813 l0 -838 -160 -12 c-298 -23 -575 -84 -842 -187 -17 -7 -18 17 -18 424 l0
431 -440 0 -440 0 0 294 0 293 83 38 c423 194 949 335 1397 374 69 6 141 13
160 15 19 1 86 4 148 4 l112 2 0 -838z m510 813 c463 -52 937 -182 1348 -370
l82 -38 0 -293 0 -294 -365 0 c-225 0 -365 -4 -365 -10 0 -5 -127 -168 -282
-362 -213 -268 -286 -353 -302 -352 -12 0 -76 10 -143 22 -68 12 -195 27 -283
34 l-160 12 0 839 0 840 168 -6 c92 -4 228 -14 302 -22z m1430 -171 c0 -153
-3 -195 -12 -191 -7 3 -69 30 -138 60 -313 137 -659 239 -1020 302 l-135 23
653 1 652 1 0 -196z m1865 -434 l-630 -630 -32 32 c-18 18 -33 35 -33 39 0 4
29 43 65 88 l66 81 -164 0 -164 0 -93 75 c-221 177 -493 355 -717 468 l-123
62 0 208 0 207 1227 0 1228 0 -630 -630z m-7077 -774 c-268 -293 -468 -575
-663 -933 l-77 -143 -204 0 -204 0 0 1227 0 1228 629 -629 629 -629 -110 -121z
m7732 149 l0 -1225 -204 0 -204 0 -77 143 c-196 359 -399 645 -663 932 l-110
120 626 628 c345 345 628 627 629 627 2 0 3 -551 3 -1225z m-6400 515 l0 -280
-360 0 -360 0 0 -357 0 -358 -220 220 c-121 121 -219 225 -218 230 5 17 193
190 312 287 209 171 481 352 706 472 69 36 128 66 133 66 4 0 7 -126 7 -280z
m4044 222 c234 -123 502 -301 726 -481 l25 -21 -437 0 -438 0 0 280 c0 154 3
280 7 280 3 0 56 -26 117 -58z m1006 -734 c17 -12 30 -27 30 -32 0 -6 -127
-137 -282 -291 -154 -154 -264 -257 -242 -229 85 109 458 574 461 574 2 0 17
-10 33 -22z m-6003 -300 l233 -233 0 -347 0 -348 -650 0 c-357 0 -650 3 -650
7 0 11 115 225 175 323 79 131 214 327 298 435 127 161 333 392 352 394 5 1
115 -104 242 -231z m6146 155 c267 -281 505 -613 689 -961 33 -62 58 -115 56
-118 -3 -2 -435 -3 -962 -2 l-956 3 136 170 c107 134 222 257 542 578 224 224
410 407 414 407 4 0 41 -35 81 -77z m-3253 -703 l0 -380 -510 0 -510 0 0 279
0 279 83 30 c292 105 590 165 855 170 l82 2 0 -380z m271 370 c104 -11 330
-47 337 -55 7 -6 -547 -695 -558 -695 -6 0 -10 136 -10 380 l0 380 64 0 c35 0
110 -5 167 -10z m-4304 -802 c-3 -7 -33 -74 -66 -149 -123 -280 -241 -675
-295 -994 l-24 -140 -1 648 -1 647 196 0 c153 0 195 -3 191 -12z m1373 -616
c0 -584 -1 -634 -19 -717 -27 -124 -49 -288 -57 -432 l-7 -123 -840 0 -840 0
7 158 c25 573 150 1108 381 1635 l47 107 664 0 664 0 0 -628z m2185 604 c-163
-43 -348 -119 -493 -205 l-52 -30 0 129 0 130 318 0 317 -1 -90 -23z m475 6
c0 -14 -744 -957 -806 -1022 -12 -13 -27 -2 -114 85 l-100 100 0 275 0 276 63
36 c280 164 606 261 895 267 53 1 62 -1 62 -17z m4075 -89 c231 -527 356
-1062 381 -1635 l7 -158 -840 0 -840 0 -7 123 c-23 405 -128 787 -316 1145
-101 192 -257 415 -383 549 -31 33 -47 58 -43 68 5 13 117 15 1000 15 l994 0
47 -107z m384 -540 l-1 -648 -24 140 c-56 324 -172 713 -295 994 -33 75 -63
142 -66 149 -4 9 38 12 191 12 l196 0 -1 -647z m-2388 515 c402 -465 630
-1030 665 -1645 l7 -123 -382 0 -381 0 0 913 c0 503 3 917 7 920 13 13 22 6
84 -65z m-132 -690 c-1 -617 -2 -678 -15 -628 -72 270 -215 562 -366 743 -28
33 -37 51 -31 60 82 104 406 507 409 507 2 0 4 -307 3 -682z m-324 -33 c133
-198 239 -449 284 -672 21 -105 41 -266 41 -333 l0 -40 -574 0 -573 0 -67 90
-66 91 213 262 c117 144 304 376 417 515 l203 253 24 -28 c13 -15 57 -77 98
-138z m-2465 -229 c0 -10 -146 -192 -161 -202 -5 -3 -9 76 -9 188 l0 193 85
-85 c47 -47 85 -89 85 -94z m-1810 -611 c0 -203 0 -205 -21 -205 -22 0 -22 2
-15 118 7 121 26 292 32 292 2 0 4 -92 4 -205z m-76 -367 c8 -140 29 -300 57
-437 18 -86 19 -140 19 -717 l0 -624 -662 0 -663 0 -54 122 c-209 472 -334
980 -371 1508 -5 80 -10 173 -10 208 l0 62 838 0 839 0 7 -122z m75 -85 c-1
-220 -8 -222 -28 -6 -17 183 -15 213 9 213 19 0 20 -6 19 -207z m4596 105
c-11 -171 -45 -340 -101 -508 -49 -146 -216 -463 -234 -443 -17 17 -770 1043
-770 1048 0 3 250 5 556 5 l557 0 -8 -102z m805 55 c0 -212 -61 -555 -141
-795 -100 -299 -310 -678 -477 -860 l-25 -28 -59 80 -58 79 0 786 0 785 380 0
380 0 0 -47z m1720 -15 c0 -106 -19 -345 -40 -506 -54 -409 -172 -828 -341
-1210 l-54 -122 -902 0 -902 0 -45 64 c-26 35 -46 66 -46 70 0 3 26 39 59 79
152 188 322 489 416 737 91 242 156 555 171 828 l7 122 839 0 838 0 0 -62z
m-5320 -538 c47 -63 89 -120 93 -126 3 -6 -52 -68 -124 -140 l-129 -129 0 299
0 298 36 -44 c20 -23 76 -95 124 -158z m2798 -636 l-3 -274 -152 206 -151 206
43 67 c97 150 193 369 236 539 l24 93 3 -281 c1 -155 1 -405 0 -556z m-6288
261 c53 -240 163 -574 270 -815 l48 -110 -194 0 -194 0 1 643 1 642 23 -130
c13 -71 33 -175 45 -230z m8810 -285 l0 -640 -194 0 -194 0 48 110 c144 325
262 718 317 1057 10 62 19 113 21 113 1 0 2 -288 2 -640z m-5150 429 c24 -34
189 -262 367 -507 l323 -445 0 -58 c0 -69 14 -65 -155 -49 -277 26 -541 110
-782 248 l-83 47 0 275 0 275 137 137 c76 76 141 138 144 138 3 0 25 -28 49
-61z m-241 -864 c104 -60 271 -129 411 -170 l115 -34 -307 -1 -308 0 0 125 c0
69 2 125 5 125 3 0 41 -20 84 -45z m1002 -187 c8 -15 6 -18 -11 -18 -16 0 -20
6 -20 33 0 33 4 31 31 -15z m-4012 -194 c177 -338 433 -696 689 -965 l86 -90
-627 -627 -627 -627 0 1223 0 1222 204 0 204 0 71 -136z m1281 -207 l0 -342
-238 -238 -239 -239 -95 104 c-208 225 -363 429 -535 703 -51 82 -193 338
-193 349 0 3 293 6 650 6 l650 0 0 -343z m2660 -38 l0 -381 -102 6 c-311 21
-594 79 -842 174 l-71 28 -3 277 -2 277 510 0 510 0 0 -381z m364 37 c136
-187 243 -343 238 -348 -17 -17 -418 -68 -538 -68 l-24 0 0 381 0 380 39 -3
40 -3 245 -339z m3636 338 c0 -11 -142 -267 -193 -349 -172 -274 -327 -478
-535 -703 l-95 -104 -129 129 c-114 113 -167 180 -458 575 -182 246 -330 450
-330 453 0 3 392 5 870 5 479 0 870 -3 870 -6z m460 -1216 l0 -1223 -627 627
-627 627 86 90 c256 269 512 627 689 965 l71 136 204 0 204 0 0 -1222z m-5050
488 c162 -35 312 -56 461 -63 l129 -6 0 -839 0 -838 -117 5 c-418 20 -753 73
-1108 176 -161 47 -413 139 -565 207 l-105 47 -3 263 -2 262 440 0 440 0 0
459 0 458 158 -53 c86 -29 209 -64 272 -78z m1319 -114 c47 -64 174 -242 284
-394 l199 -278 364 0 364 0 -2 -262 -3 -263 -105 -47 c-514 -230 -1061 -355
-1672 -382 l-118 -5 0 839 0 840 67 0 c126 0 355 29 533 69 3 0 43 -52 89
-117z m-3029 -672 l360 0 0 -251 0 -251 -125 66 c-340 179 -684 426 -973 700
l-63 60 218 218 218 218 3 -380 2 -380 360 0z m-789 254 c61 -65 276 -250 397
-342 210 -159 438 -304 675 -427 l77 -40 0 -202 0 -203 -1222 0 -1223 0 625
625 c344 344 627 625 631 625 3 0 21 -16 40 -36z m6889 -589 l625 -625 -1223
0 -1222 0 0 203 0 202 63 32 c236 123 487 281 687 434 l117 89 261 2 261 3
-85 115 c-47 63 -94 127 -105 143 -11 15 -17 27 -12 27 4 0 289 -281 633 -625z
m-1086 289 c-164 -127 -411 -286 -609 -390 l-125 -66 0 251 0 251 397 0 396 0
-59 -46z m-4266 -672 c293 -110 583 -186 892 -235 14 -2 -260 -5 -607 -6
l-633 -1 0 194 0 195 95 -44 c53 -25 166 -71 253 -103z m3492 -47 l0 -195
-632 1 c-348 1 -622 4 -608 6 393 62 840 194 1142 337 51 24 94 45 96 45 1 1
2 -87 2 -194z"/>
</g>
</svg>
