<?xml version="1.0" encoding="UTF-8"?>
<svg width="460px" height="399px" viewBox="0 0 460 399" version="1.1" xmlns="http://www.w3.org/2000/svg" xmlns:xlink="http://www.w3.org/1999/xlink">
    <!-- Generator: Sketch 43.2 (39069) - http://www.bohemiancoding.com/sketch -->
    <title>mute-svgrepo-com</title>
    <desc>Created with Sketch.</desc>
    <defs></defs>
    <g id="Page-1" stroke="none" stroke-width="1" fill="none" fill-rule="evenodd">
        <g id="mute-svgrepo-com" fill-rule="nonzero" fill="#FFFFFF">
            <path d="M452.15,7.997 C442.282,-1.661 426.452,-1.485 416.797,8.383 L76.371,356.316 C66.715,366.184 66.888,382.013 76.757,391.669 C81.62,396.429 87.932,398.8 94.238,398.8 C100.728,398.8 107.213,396.289 112.109,391.283 L452.535,43.349 C462.192,33.481 462.019,17.651 452.15,7.997 Z" id="Shape"></path>
            <path d="M391.27,148.862 C399.397,164.067 404.012,181.42 404.012,199.832 C404.012,259.499 355.598,308.067 295.991,308.328 L295.991,363.852 C386.215,363.591 459.537,290.116 459.537,199.832 C459.537,165.806 449.119,134.171 431.31,107.939 L391.27,148.862 Z" id="Shape"></path>
            <path d="M295.991,35.812 L295.991,88.956 L341.547,42.395 C327.081,38.159 311.797,35.857 295.991,35.812 Z" id="Shape"></path>
            <path d="M295.992,287.912 C344.345,287.651 383.604,248.245 383.604,199.832 C383.604,187.21 380.93,175.202 376.128,164.339 L295.992,246.243 L295.992,287.912 L295.992,287.912 Z" id="Shape"></path>
            <polygon id="Shape" points="295.992 287.912 295.992 287.912 295.991 287.912"></polygon>
            <path d="M220.376,386.631 C228.63,393.137 239.874,394.353 249.327,389.768 C258.782,385.182 264.785,375.597 264.785,365.089 L264.785,278.136 L185.516,359.154 L220.376,386.631 Z" id="Shape"></path>
            <path d="M264.785,120.849 L264.785,34.575 C264.785,24.067 258.782,14.482 249.327,9.896 C239.898,5.322 228.651,6.511 220.376,13.033 L116.917,94.58 L29.486,94.58 C13.201,94.581 0,107.783 0,124.067 L0,275.599 C0,291.883 13.201,305.085 29.486,305.085 L84.528,305.085 L264.785,120.849 Z" id="Shape"></path>
        </g>
    </g>
</svg>