<?xml version="1.0" encoding="UTF-8"?>
<svg width="156px" height="152px" viewBox="0 0 156 152" version="1.1" xmlns="http://www.w3.org/2000/svg" xmlns:xlink="http://www.w3.org/1999/xlink">
    <!-- Generator: Sketch 43.2 (39069) - http://www.bohemiancoding.com/sketch -->
    <title>play-button</title>
    <desc>Created with Sketch.</desc>
    <defs></defs>
    <g id="Page-1" stroke="none" stroke-width="1" fill="none" fill-rule="evenodd">
        <g id="play-button" fill-rule="nonzero" fill="#FFFFFF">
            <path d="M143.878,56.015 L46.02,4.45 C36.204,-0.722 24.672,-0.388 15.172,5.344 C5.672,11.076 0,21.122 0,32.218 L0,119.691 C0,130.787 5.672,140.833 15.172,146.565 C20.19,149.593 25.773,151.114 31.372,151.114 C36.373,151.114 41.388,149.899 46.019,147.459 L143.877,95.893 C151.297,91.983 155.907,84.343 155.907,75.955 C155.907,67.567 151.298,59.926 143.878,56.015 Z M135.486,79.968 L37.628,131.534 C33.379,133.773 28.583,133.635 24.471,131.153 C20.358,128.671 18,124.493 18,119.69 L18,32.218 C18,27.415 20.358,23.237 24.471,20.756 C26.64,19.447 29,18.79 31.369,18.79 C33.491,18.79 35.62,19.317 37.628,20.375 L135.486,71.94 C137.672,73.092 137.908,75.131 137.908,75.954 C137.908,76.777 137.672,78.816 135.486,79.968 Z" id="Shape"></path>
        </g>
    </g>
</svg>