<?xml version="1.0" encoding="UTF-8"?>
<svg width="427px" height="490px" viewBox="0 0 427 490" version="1.1" xmlns="http://www.w3.org/2000/svg" xmlns:xlink="http://www.w3.org/1999/xlink">
    <!-- Generator: Sketch 43.2 (39069) - http://www.bohemiancoding.com/sketch -->
    <title>reload-svgrepo-com</title>
    <desc>Created with Sketch.</desc>
    <defs></defs>
    <g id="Page-1" stroke="none" stroke-width="1" fill="none" fill-rule="evenodd">
        <g id="reload-svgrepo-com" fill-rule="nonzero" fill="#FFFFFF">
            <path d="M237.175,488.161 C335.375,477.161 414.075,398.661 425.275,300.461 C439.975,172.061 340.175,62.761 215.075,61.361 L215.075,3.761 C215.075,0.561 211.075,-1.139 208.375,0.861 L89.775,87.961 C87.775,89.461 87.775,92.361 89.775,93.861 L208.375,180.961 C211.075,182.961 215.075,181.161 215.075,178.061 L215.075,120.561 C302.975,121.961 373.375,196.761 367.375,286.161 C362.275,363.061 299.575,425.461 222.675,430.361 C141.175,435.561 71.875,377.361 59.475,300.361 C57.175,286.061 44.675,275.661 30.275,275.661 C12.375,275.661 -1.625,291.561 1.175,309.261 C18.575,418.961 119.875,501.261 237.175,488.161 Z" id="Shape"></path>
        </g>
    </g>
</svg>