<?xml version="1.0" encoding="UTF-8"?>
<svg width="460px" height="386px" viewBox="0 0 460 386" version="1.1" xmlns="http://www.w3.org/2000/svg" xmlns:xlink="http://www.w3.org/1999/xlink">
    <!-- Generator: Sketch 43.2 (39069) - http://www.bohemiancoding.com/sketch -->
    <title>unmute</title>
    <desc>Created with Sketch.</desc>
    <defs></defs>
    <g id="Page-1" stroke="none" stroke-width="1" fill="none" fill-rule="evenodd">
        <g id="unmute" fill-rule="nonzero" fill="#FFFFFF">
            <path d="M391.27,141.862 C399.397,157.067 404.012,174.42 404.012,192.832 C404.012,252.499 355.598,301.067 295.991,301.328 L295.991,356.852 C386.215,356.591 459.537,283.116 459.537,192.832 C459.537,158.806 449.119,127.171 431.31,100.939 L391.27,141.862 Z" id="Shape"></path>
            <path d="M391.279,69.923 C399.406,85.128 404.021,102.481 404.021,120.893 C404.021,180.56 355.607,229.128 296,229.389 L296,284.913 C386.224,284.652 459.546,211.177 459.546,120.893 C459.546,86.867 449.128,55.232 431.319,29 L391.279,69.923 Z" id="Shape" transform="translate(377.773000, 156.956500) scale(-1, 1) rotate(-180.000000) translate(-377.773000, -156.956500) "></path>
            <path d="M295.991,28.812 L295.991,81.956 L341.547,35.395 C327.081,31.159 311.797,28.857 295.991,28.812 Z" id="Shape"></path>
            <path d="M295.992,280.912 C344.345,280.651 383.604,241.245 383.604,192.832 C383.604,180.21 380.93,168.202 376.128,157.339 L295.992,239.243 L295.992,280.912 L295.992,280.912 Z" id="Shape"></path>
            <path d="M296,224.573 C344.353,224.312 383.612,184.906 383.612,136.493 C383.612,123.871 380.938,111.863 376.136,101 L296,182.904 L296,224.573 L296,224.573 Z" id="Shape" transform="translate(339.806000, 162.786500) scale(-1, 1) rotate(-180.000000) translate(-339.806000, -162.786500) "></path>
            <rect id="Rectangle" x="296" y="140" width="49" height="112"></rect>
            <polygon id="Shape" points="295.992 280.912 295.992 280.912 295.991 280.912"></polygon>
            <path d="M220.376,379.631 C228.63,386.137 239.874,387.353 249.327,382.768 C258.782,378.182 264.785,368.597 264.785,358.089 L264.785,271.136 L185.516,352.154 L220.376,379.631 Z" id="Shape"></path>
            <path d="M264.785,201.70322 L264.785,115.42922 C264.785,104.92122 258.782,95.3362198 249.327,90.7502198 C239.898,86.1762198 228.651,87.3652198 220.376,93.8872198 L116.917,175.43422 L29.486,175.43422 C13.201,175.43522 0,188.63722 0,204.92122 L0,356.45322 C0,372.73722 13.201,385.93922 29.486,385.93922 L84.528,385.93922 L264.785,201.70322 Z" id="Shape" transform="translate(132.392500, 236.969610) scale(-1, 1) rotate(-180.000000) translate(-132.392500, -236.969610) "></path>
            <path d="M264.785,113.849 L264.785,27.575 C264.785,17.067 258.782,7.482 249.327,2.896 C239.898,-1.678 228.651,-0.489 220.376,6.033 L116.917,87.58 L29.486,87.58 C13.201,87.581 0,100.783 0,117.067 L0,268.599 C0,284.883 13.201,298.085 29.486,298.085 L84.528,298.085 L264.785,113.849 Z" id="Shape"></path>
            <rect id="Rectangle-2" x="186" y="101" width="79" height="202"></rect>
        </g>
    </g>
</svg>